inDegrees=yes
name=ik_S40_A07_T01
DataType=double
version=3
OpenSimVersion=4.3-2021-08-27-4bc7ad9
endheader
time	pelvis_tilt	pelvis_list	pelvis_rotation	pelvis_tx	pelvis_ty	pelvis_tz	hip_flexion_r	hip_adduction_r	hip_rotation_r	knee_angle_r	knee_angle_r_beta	ankle_angle_r	subtalar_angle_r	mtp_angle_r	hip_flexion_l	hip_adduction_l	hip_rotation_l	knee_angle_l	knee_angle_l_beta	ankle_angle_l	subtalar_angle_l	mtp_angle_l	lumbar_extension	lumbar_bending	lumbar_rotation	arm_flex_r	arm_add_r	arm_rot_r	elbow_flex_r	pro_sup_r	wrist_flex_r	wrist_dev_r	arm_flex_l	arm_add_l	arm_rot_l	elbow_flex_l	pro_sup_l	wrist_flex_l	wrist_dev_l
4.919999999999983	-6.331989740388881	-1.464302769310339	38.24550587630872	0	0.9399999999999999	0	22.11677051909088	-8.094001606279933	-6.852566275039734	26.16052407360498	0.4565872791316462	0	0	0	22.11677051909088	-8.094001606279933	-6.852566275039734	26.16052407360498	0.4565872791316462	0	0	0	-3.088015134389845	-2.540099012214073	3.434624166917063	54.39531674272273	4.756098744582263	36.3286957494784	35.17796856790137	79.39047684175158	0	0	18.5584515929742	-1.830341130350104	8.606932362064244	43.40184093844496	127.4081248732494	0	0
4.939999999999983	-6.347520660523363	-1.465299122274654	38.18113091520653	0	0.9399999999999999	0	22.12953365676748	-8.097354502875163	-6.856134740236792	26.17274904438736	0.4568006451227589	0	0	0	22.12953365676748	-8.097354502875163	-6.856134740236792	26.17274904438736	0.4568006451227589	0	0	0	-3.10028620279497	-2.534884284539797	3.507782615290012	54.51508311886567	4.596919829407335	35.78178655122006	36.73077582343763	80.30275882763223	0	0	18.61969201018412	-1.784091964089472	8.517673204256617	43.31590270518343	127.4836958547049	0	0
4.959999999999982	-6.389497179636085	-1.470958202570301	38.2748001023904	0	0.9399999999999999	0	22.16172605437052	-8.105778568648859	-6.865121905587906	26.2035661919973	0.4573385058146254	0	0	0	22.16172605437052	-8.105778568648859	-6.865121905587906	26.2035661919973	0.4573385058146254	0	0	0	-3.139206492664165	-2.507156845022762	3.481525049821701	54.58959284966667	4.391179434939139	34.96449512490864	41.20055750448575	83.8014452513664	0	0	18.68597679694581	-1.711977832236208	8.577848183238926	43.32010980316576	127.4423611776034	0	0
4.979999999999982	-6.397238339221207	-1.470198529264499	38.25065555898803	0	0.9399999999999999	0	22.17825720423289	-8.110077561495897	-6.86971885958403	26.21948824677407	0.457616398094163	0	0	0	22.17825720423289	-8.110077561495897	-6.86971885958403	26.21948824677407	0.457616398094163	0	0	0	-3.144893101121767	-2.503569089506459	3.53239668488733	54.57456209723369	4.211607975032641	34.52173882114803	43.14678646423687	85.56260585382918	0	0	18.68078820728252	-1.680160442577866	8.509138845939342	43.35353010015289	127.4898091854648	0	0
4.999999999999981	-6.413930532274844	-1.471532158666453	38.43710725217876	0	0.9399999999999999	0	22.19271103683677	-8.11385228941997	-6.873749696381469	26.23333711450439	0.4578581064337303	0	0	0	22.19271103683677	-8.11385228941997	-6.873749696381469	26.23333711450439	0.4578581064337303	0	0	0	-3.162035373678567	-2.484853777353677	3.399315571476666	54.54393408757193	4.201611274339521	34.31009166186892	45.0114668534286	87.3099389880223	0	0	18.71734961860879	-1.610359483483502	8.408993322999939	43.34756020960278	127.5770447367188	0	0
5.019999999999981	-6.412914425899287	-1.479527818359794	38.41676731642495	0	0.9399999999999999	0	22.19904795040633	-8.11551739650354	-6.87552359321364	26.23937382913751	0.4579634669800815	0	0	0	22.19904795040633	-8.11551739650354	-6.87552359321364	26.23937382913751	0.4579634669800815	0	0	0	-3.16601144945025	-2.493222940578756	3.432276358882933	54.57389402799034	3.986732338870302	34.14118098157211	45.1473014682725	87.31635684824326	0	0	18.73253003070436	-1.616941751193945	8.419025903417369	43.36630081239885	127.5731637149404	0	0
5.03999999999998	-6.400025288316793	-1.472493050973099	38.30892949687644	0	0.9399999999999999	0	22.21644402487741	-8.120052314166582	-6.880370913974374	26.25604703398824	0.4582544693015863	0	0	0	22.21644402487741	-8.120052314166582	-6.880370913974374	26.25604703398824	0.4582544693015863	0	0	0	-3.15327253837035	-2.496130447983044	3.534820125166866	54.54448867613001	3.589064118930415	33.58986758413766	49.3947205879673	90.74922793121053	0	0	18.72458060355565	-1.631543281545903	8.379218729738943	43.36217293033103	127.6032423169768	0	0
5.05999999999998	-6.395715581100085	-1.481627855468	38.27228855328356	0	0.9399999999999999	0	22.22383822908708	-8.121990671343049	-6.882438584321115	26.26309320620003	0.4583774482063446	0	0	0	22.22383822908708	-8.121990671343049	-6.882438584321115	26.26309320620003	0.4583774482063446	0	0	0	-3.155605506428905	-2.506593953825517	3.556921122480856	54.71483343484917	3.392612731834291	33.5141231549316	49.39316349200011	90.60483027192598	0	0	18.72735820411583	-1.663071492752005	8.367517126181339	43.37633692346974	127.6050987537615	0	0
5.07999999999998	-6.396412137473956	-1.480483432937541	38.33076734947155	0	0.9399999999999999	0	22.2421011915787	-8.126739430852728	-6.887521458652212	26.28060557069641	0.4586830966266158	0	0	0	22.2421011915787	-8.126739430852728	-6.887521458652212	26.28060557069641	0.4586830966266158	0	0	0	-3.157977740415602	-2.491075315323804	3.477606296195963	54.71773992799999	3.37132447115816	33.13318949514829	53.6368438183115	94.31560821938236	0	0	18.65350722379397	-1.710959760201622	8.403858272248925	43.42728782367223	127.4768304384467	0	0
5.099999999999979	-6.400193002873502	-1.488809919347431	38.2889019125744	0	0.9399999999999999	0	22.25165531755454	-8.129239130663469	-6.890191048109032	26.28970783391007	0.4588419610890773	0	0	0	22.25165531755454	-8.129239130663469	-6.890191048109032	26.28970783391007	0.4588419610890773	0	0	0	-3.166469706784198	-2.495084349256346	3.493221553098659	54.90621747183771	3.211154069571703	33.17189093823753	53.58531465107898	94.10313582702499	0	0	18.62125446245017	-1.734396101448298	8.422356733682145	43.48926345002696	127.4565390596611	0	0
5.119999999999979	-6.399269217673665	-1.503218280650154	38.41888445448232	0	0.9399999999999999	0	22.26543998485982	-8.132802165955185	-6.89401528774378	26.30296967124306	0.4590734238154018	0	0	0	22.26543998485982	-8.132802165955185	-6.89401528774378	26.30296967124306	0.4590734238154018	0	0	0	-3.176912224651961	-2.492751445745681	3.316321741705207	54.86760182251928	3.34009942608999	32.87256818614013	58.28288272883279	98.21501090427486	0	0	18.60409601990685	-1.783818900744658	8.387832054226539	43.52169335850525	127.4938921890684	0	0
5.139999999999978	-6.400722791198745	-1.51326522826807	38.4005301182913	0	0.9399999999999999	0	22.27937885321462	-8.136412339176902	-6.897887834508152	26.31634243944625	0.4593068226506534	0	0	0	22.27937885321462	-8.136412339176902	-6.897887834508152	26.31634243944625	0.4593068226506534	0	0	0	-3.185194363058841	-2.496742301754654	3.288319422573303	54.9772698476124	3.34296865934503	32.69142181319631	60.76565163052979	100.328361546103	0	0	18.60460356917297	-1.818466678275839	8.329383803591245	43.55639947554544	127.5287619713645	0	0
5.159999999999978	-6.414227606657252	-1.520563639257026	38.32662308599213	0	0.9399999999999999	0	22.29239898876004	-8.139783996322242	-6.901505448910172	26.32882418140714	0.4595246701442553	0	0	0	22.29239898876004	-8.139783996322242	-6.901505448910172	26.32882418140714	0.4595246701442553	0	0	0	-3.200637182849543	-2.495945891809118	3.318884897620119	55.20994967699324	3.317137592323554	32.43865097068196	63.16958989980048	102.7053643312561	0	0	18.61023903905221	-1.838650392055382	8.276721961188446	43.56605176720004	127.5373505525166	0	0
5.179999999999978	-6.407617145068574	-1.515339026942433	38.24248006988146	0	0.9399999999999999	0	22.30807542968349	-8.143852653391065	-6.905867998697167	26.34380649124359	0.4597861607804554	0	0	0	22.30807542968349	-8.143852653391065	-6.905867998697167	26.34380649124359	0.4597861607804554	0	0	0	-3.193045775799938	-2.496257410869881	3.366000286976423	55.49485240844722	3.351991077034131	32.10997780461123	65.56515821718634	105.5088570532405	0	0	18.59355208551892	-1.843849678759019	8.251299939006252	43.54890610612007	127.5353093205412	0	0
5.199999999999977	-6.424242578341938	-1.528465026632427	38.25245069328011	0	0.9399999999999999	0	22.320052852027	-8.146906088629116	-6.909165978806919	26.3554225615602	0.4599888994536233	0	0	0	22.320052852027	-8.146906088629116	-6.909165978806919	26.3554225615602	0.4599888994536233	0	0	0	-3.215184557164108	-2.491121176988383	3.314357054039987	55.36958513559524	3.541193051776253	31.94051227820994	68.30131806389812	108.8119511509685	0	0	18.61821437467978	-1.852829534146191	8.205588661065544	43.53793161431929	127.5640722468164	0	0
5.219999999999977	-6.437320582342126	-1.525494804025823	38.18875068018659	0	0.9399999999999999	0	22.32910646884109	-8.149255419429217	-6.911686102524464	26.36406148770168	0.4601396771586288	0	0	0	22.32910646884109	-8.149255419429217	-6.911686102524464	26.36406148770168	0.4601396771586288	0	0	0	-3.223358820650425	-2.482710027257833	3.358420650903934	55.95490326402859	3.401732580187697	31.78846362122693	67.91148718570366	108.4196769369355	0	0	18.60890366434445	-1.851364035007686	8.218524233558693	43.59855420337092	127.5554110060377	0	0
5.239999999999976	-6.445323415021716	-1.513774986722673	38.10339955420402	0	0.9399999999999999	0	22.34064624577501	-8.152237505984436	-6.914890747046003	26.37510427626376	0.4603324101776386	0	0	0	22.34064624577501	-8.152237505984436	-6.914890747046003	26.37510427626376	0.4603324101776386	0	0	0	-3.221827786473575	-2.473377438905465	3.422926059555786	56.40357529266235	3.426018910532128	31.55759152660463	70.0612374410948	111.1080762265419	0	0	18.60485839372616	-1.846420253675827	8.275080325136772	43.5527403584419	127.5624407878997	0	0
5.259999999999976	-6.434864538403574	-1.497967924680482	38.04229439977158	0	0.9399999999999999	0	22.35662631750245	-8.156385577766706	-6.919341412966572	26.39032081631057	0.4605979889022172	0	0	0	22.35662631750245	-8.156385577766706	-6.919341412966572	26.39032081631057	0.4605979889022172	0	0	0	-3.20359772378213	-2.471630792948924	3.478147533011725	57.45957887579593	3.35956430343411	31.32889310985305	71.62560677436412	112.8838606204493	0	0	18.56479590783561	-1.865699682176341	8.385675801042035	43.53774690232255	127.5165214118104	0	0
